<svg xmlns="http://www.w3.org/2000/svg" version="1.1" xmlns:xlink="http://www.w3.org/1999/xlink" xmlns:svgjs="http://svgjs.com/svgjs" width="1920" height="1024" preserveAspectRatio="none" viewBox="0 0 1920 1024"><g mask="url(&quot;#SvgjsMask1018&quot;)" fill="none"><rect width="1920" height="1024" x="0" y="0" fill="rgba(15, 122, 233, 1)"></rect><path d="M 0,419 C 76.8,380.6 230.4,216.4 384,227 C 537.6,237.6 614.4,490 768,472 C 921.6,454 998.4,173.6 1152,137 C 1305.6,100.4 1382.4,286 1536,289 C 1689.6,292 1843.2,179.4 1920,152L1920 1024L0 1024z" fill="#184a7e"></path><path d="M 0,863 C 128,839.8 384,735.4 640,747 C 896,758.6 1024,924.8 1280,921 C 1536,917.2 1792,766.6 1920,728L1920 1024L0 1024z" fill="#2264ab"></path></g><defs><mask id="SvgjsMask1018"><rect width="1920" height="1024" fill="#ffffff"></rect></mask></defs></svg>